<svg width="118" height="40" viewBox="0 0 118 40" fill="none" xmlns="http://www.w3.org/2000/svg">
<path fill-rule="evenodd" clip-rule="evenodd" d="M20 40C31.0457 40 40 31.0457 40 20C40 8.95431 31.0457 0 20 0C8.95429 0 0 8.95431 0 20C0 31.0457 8.95429 40 20 40ZM26.2393 9.31684C26.543 8.23805 25.4961 7.60013 24.54 8.2813L11.1931 17.7896C10.1562 18.5283 10.3193 20 11.4381 20H14.9527V19.9728H21.8025L16.2212 21.9421L13.7607 30.6832C13.457 31.762 14.5038 32.3999 15.46 31.7187L28.8069 22.2105C29.8438 21.4718 29.6806 20 28.5619 20H23.2321L26.2393 9.31684Z" fill="url(#paint0_linear_2905_563)"/>
<path d="M58.3408 25.5469V19.8848C58.3408 19.4954 58.2858 19.1611 58.1758 18.8818C58.0658 18.6025 57.8923 18.3867 57.6553 18.2344C57.4183 18.0736 57.1009 17.9932 56.7031 17.9932C56.3815 17.9932 56.1064 18.0482 55.8779 18.1582C55.6494 18.2682 55.4759 18.4333 55.3574 18.6533C55.2389 18.8734 55.1797 19.1527 55.1797 19.4912H50.9014C50.9014 18.8564 51.041 18.2682 51.3203 17.7266C51.6081 17.1764 52.0143 16.6982 52.5391 16.292C53.0723 15.8857 53.707 15.5726 54.4434 15.3525C55.1882 15.124 56.0176 15.0098 56.9316 15.0098C58.0234 15.0098 58.9967 15.1917 59.8516 15.5557C60.7148 15.9196 61.3962 16.4655 61.8955 17.1934C62.3949 17.9128 62.6445 18.8184 62.6445 19.9102V25.5342C62.6445 26.4313 62.6953 27.1126 62.7969 27.5781C62.8984 28.0352 63.0423 28.4372 63.2285 28.7842V29H58.9375C58.7344 28.5768 58.582 28.0605 58.4805 27.4512C58.3874 26.8333 58.3408 26.1986 58.3408 25.5469ZM58.8613 20.6084L58.8867 22.8936H56.9951C56.5973 22.8936 56.2588 22.9486 55.9795 23.0586C55.7087 23.1686 55.4886 23.321 55.3193 23.5156C55.1585 23.7018 55.04 23.9134 54.9639 24.1504C54.8962 24.3874 54.8623 24.637 54.8623 24.8994C54.8623 25.1533 54.9215 25.3818 55.04 25.585C55.167 25.7796 55.3363 25.932 55.5479 26.042C55.7594 26.152 55.9964 26.207 56.2588 26.207C56.7327 26.207 57.1348 26.1182 57.4648 25.9404C57.8034 25.7542 58.0615 25.5299 58.2393 25.2676C58.417 25.0052 58.5059 24.7598 58.5059 24.5312L59.4453 26.2832C59.276 26.6217 59.0814 26.9645 58.8613 27.3115C58.6497 27.6585 58.3831 27.9801 58.0615 28.2764C57.7484 28.5641 57.3633 28.8011 56.9062 28.9873C56.4492 29.165 55.8949 29.2539 55.2432 29.2539C54.3968 29.2539 53.6182 29.0804 52.9072 28.7334C52.2048 28.3864 51.6419 27.904 51.2188 27.2861C50.7956 26.6598 50.584 25.9404 50.584 25.1279C50.584 24.417 50.7109 23.7822 50.9648 23.2236C51.2272 22.665 51.6208 22.1911 52.1455 21.8018C52.6702 21.4124 53.3389 21.1162 54.1514 20.9131C54.9639 20.71 55.9202 20.6084 57.0205 20.6084H58.8613ZM69.335 18.666V29H65.0566V15.2637H69.0557L69.335 18.666ZM73.3975 15.1621L73.3213 19.1357C73.152 19.1188 72.9235 19.0977 72.6357 19.0723C72.348 19.0469 72.1068 19.0342 71.9121 19.0342C71.4128 19.0342 70.9811 19.0934 70.6172 19.2119C70.2617 19.3219 69.9655 19.4912 69.7285 19.7197C69.5 19.9398 69.3307 20.2191 69.2207 20.5576C69.1191 20.8962 69.0726 21.2897 69.0811 21.7383L68.3066 21.2305C68.3066 20.3079 68.3955 19.4701 68.5732 18.7168C68.7594 17.9551 69.0218 17.2992 69.3604 16.749C69.6989 16.1904 70.1094 15.763 70.5918 15.4668C71.0742 15.1621 71.6159 15.0098 72.2168 15.0098C72.4284 15.0098 72.6357 15.0225 72.8389 15.0479C73.0505 15.0732 73.2367 15.1113 73.3975 15.1621ZM83.249 15.2637H87.1338V28.4668C87.1338 29.7363 86.8418 30.8112 86.2578 31.6914C85.6738 32.5801 84.8571 33.2529 83.8076 33.71C82.7666 34.1755 81.5479 34.4082 80.1514 34.4082C79.5335 34.4082 78.903 34.3278 78.2598 34.167C77.6165 34.0146 77.0156 33.7861 76.457 33.4814C75.8984 33.1768 75.4287 32.8001 75.0479 32.3516L76.8379 29.8379C77.1849 30.2272 77.6208 30.5573 78.1455 30.8281C78.6702 31.1074 79.2881 31.2471 79.999 31.2471C80.6169 31.2471 81.1331 31.137 81.5479 30.917C81.971 30.6969 82.2926 30.3753 82.5127 29.9521C82.7327 29.5374 82.8428 29.0339 82.8428 28.4414V18.5137L83.249 15.2637ZM74.1211 22.2969V22.0303C74.1211 20.9893 74.248 20.0413 74.502 19.1865C74.7643 18.3232 75.1367 17.5827 75.6191 16.9648C76.11 16.3385 76.7025 15.8561 77.3965 15.5176C78.0905 15.179 78.8734 15.0098 79.7451 15.0098C80.6846 15.0098 81.4548 15.1917 82.0557 15.5557C82.665 15.9111 83.1517 16.4105 83.5156 17.0537C83.888 17.6969 84.1758 18.4502 84.3789 19.3135C84.5905 20.1683 84.7682 21.0908 84.9121 22.0811V22.3984C84.7682 23.3294 84.5693 24.2096 84.3154 25.0391C84.07 25.86 83.7484 26.5879 83.3506 27.2227C82.9528 27.8574 82.4535 28.3568 81.8525 28.7207C81.2601 29.0762 80.5492 29.2539 79.7197 29.2539C78.8564 29.2539 78.0778 29.0804 77.3838 28.7334C76.6982 28.3864 76.11 27.8997 75.6191 27.2734C75.1367 26.6471 74.7643 25.9108 74.502 25.0645C74.248 24.2181 74.1211 23.2956 74.1211 22.2969ZM78.3994 22.0303V22.2969C78.3994 22.8132 78.446 23.2913 78.5391 23.7314C78.6406 24.1715 78.793 24.5609 78.9961 24.8994C79.1992 25.2295 79.4489 25.4876 79.7451 25.6738C80.0498 25.86 80.4053 25.9531 80.8115 25.9531C81.4294 25.9531 81.9287 25.8219 82.3096 25.5596C82.6904 25.2972 82.9655 24.9248 83.1348 24.4424C83.304 23.96 83.376 23.3929 83.3506 22.7412V21.7383C83.3675 21.1797 83.3294 20.6888 83.2363 20.2656C83.1432 19.834 82.9951 19.4743 82.792 19.1865C82.5973 18.8988 82.335 18.6829 82.0049 18.5391C81.6833 18.3867 81.2939 18.3105 80.8369 18.3105C80.4391 18.3105 80.0879 18.4036 79.7832 18.5898C79.4785 18.776 79.2246 19.0384 79.0215 19.377C78.8184 19.707 78.6618 20.1006 78.5518 20.5576C78.4502 21.0062 78.3994 21.4971 78.3994 22.0303ZM89.0635 22.2715V22.0049C89.0635 20.9977 89.2074 20.071 89.4951 19.2246C89.7829 18.3698 90.2061 17.6292 90.7646 17.0029C91.3232 16.3766 92.013 15.89 92.834 15.543C93.6549 15.1875 94.6029 15.0098 95.6777 15.0098C96.7611 15.0098 97.7132 15.1875 98.5342 15.543C99.3636 15.89 100.058 16.3766 100.616 17.0029C101.175 17.6292 101.598 18.3698 101.886 19.2246C102.174 20.071 102.317 20.9977 102.317 22.0049V22.2715C102.317 23.2702 102.174 24.1969 101.886 25.0518C101.598 25.8981 101.175 26.6387 100.616 27.2734C100.058 27.8997 99.3678 28.3864 98.5469 28.7334C97.7259 29.0804 96.778 29.2539 95.7031 29.2539C94.6283 29.2539 93.6761 29.0804 92.8467 28.7334C92.0173 28.3864 91.3232 27.8997 90.7646 27.2734C90.2061 26.6387 89.7829 25.8981 89.4951 25.0518C89.2074 24.1969 89.0635 23.2702 89.0635 22.2715ZM93.3418 22.0049V22.2715C93.3418 22.7878 93.3799 23.2702 93.4561 23.7188C93.5322 24.1673 93.6592 24.5609 93.8369 24.8994C94.0146 25.2295 94.2559 25.4876 94.5605 25.6738C94.8652 25.86 95.2461 25.9531 95.7031 25.9531C96.1517 25.9531 96.5241 25.86 96.8203 25.6738C97.125 25.4876 97.3662 25.2295 97.5439 24.8994C97.7217 24.5609 97.8486 24.1673 97.9248 23.7188C98.001 23.2702 98.0391 22.7878 98.0391 22.2715V22.0049C98.0391 21.5055 98.001 21.0358 97.9248 20.5957C97.8486 20.1471 97.7217 19.7536 97.5439 19.415C97.3662 19.068 97.125 18.7972 96.8203 18.6025C96.5156 18.4079 96.1348 18.3105 95.6777 18.3105C95.2292 18.3105 94.8525 18.4079 94.5479 18.6025C94.2516 18.7972 94.0146 19.068 93.8369 19.415C93.6592 19.7536 93.5322 20.1471 93.4561 20.5957C93.3799 21.0358 93.3418 21.5055 93.3418 22.0049ZM108.424 18.1963V29H104.146V15.2637H108.157L108.424 18.1963ZM107.916 21.6621L106.913 21.6875C106.913 20.638 107.04 19.7028 107.294 18.8818C107.548 18.0524 107.908 17.3499 108.373 16.7744C108.839 16.1989 109.393 15.763 110.036 15.4668C110.688 15.1621 111.411 15.0098 112.207 15.0098C112.842 15.0098 113.422 15.1029 113.946 15.2891C114.479 15.4753 114.937 15.7757 115.317 16.1904C115.707 16.6051 116.003 17.1553 116.206 17.8408C116.418 18.5179 116.523 19.3558 116.523 20.3545V29H112.22V20.3418C112.22 19.7917 112.144 19.3727 111.991 19.085C111.839 18.7887 111.619 18.5856 111.331 18.4756C111.043 18.3656 110.692 18.3105 110.277 18.3105C109.837 18.3105 109.465 18.3952 109.16 18.5645C108.855 18.7337 108.61 18.9707 108.424 19.2754C108.246 19.5716 108.115 19.9229 108.03 20.3291C107.954 20.7354 107.916 21.1797 107.916 21.6621Z" fill="#374152"/>
<defs>
<linearGradient id="paint0_linear_2905_563" x1="20" y1="0" x2="20" y2="40" gradientUnits="userSpaceOnUse">
<stop stop-color="#3182CE"/>
<stop offset="1" stop-color="#63B3ED"/>
</linearGradient>
</defs>
</svg>
